<?xml version="1.0" encoding="UTF-8" standalone="no"?>
<svg
   version="1.1"
   id="svg18"
   width="1095.3781"
   height="283.39258"
   viewBox="0 0 1095.3781 283.39258"
   xmlns="http://www.w3.org/2000/svg"
   xmlns:svg="http://www.w3.org/2000/svg">
  <defs
     id="defs22">
    <clipPath
       clipPathUnits="userSpaceOnUse"
       id="clipPath34">
      <path
         d="M 0,560 H 960 V 0 H 0 Z"
         id="path32" />
    </clipPath>
  </defs>
  <g
     id="g26"
     transform="matrix(1.3333333,0,0,-1.3333333,-92.845001,515.08739)">
    <g
       id="g28">
      <g
         id="g30"
         clip-path="url(#clipPath34)">
        <g
           id="g36"
           transform="translate(462.0947,185.4297)">
          <path
             d="m 0,0 c -0.312,-1.874 -0.871,-3.544 -1.677,-5.01 -0.805,-1.466 -1.793,-2.689 -2.963,-3.669 -1.17,-0.98 -2.512,-1.721 -4.028,-2.225 -1.517,-0.503 -3.132,-0.754 -4.848,-0.754 -1.317,0 -2.56,0.151 -3.729,0.454 -1.17,0.304 -2.292,0.767 -3.366,1.391 -1.075,0.624 -2.028,1.351 -2.859,2.183 -1.178,1.213 -2.027,2.504 -2.548,3.873 -0.519,1.368 -0.84,2.855 -0.961,4.457 -0.122,1.603 -0.182,3.903 -0.182,6.901 0,2.304 0.03,4.132 0.091,5.484 0.06,1.352 0.199,2.59 0.416,3.717 0.217,1.126 0.572,2.178 1.065,3.158 0.494,0.978 1.2,1.936 2.119,2.872 1.317,1.316 2.816,2.316 4.496,3.002 1.681,0.684 3.5,1.026 5.458,1.026 3.552,0 6.529,-1.006 8.928,-3.018 2.4,-2.013 3.929,-4.893 4.588,-8.64 h -5.874 c -0.451,1.989 -1.33,3.568 -2.639,4.735 -1.307,1.167 -2.975,1.751 -5.003,1.751 -1.109,0 -2.153,-0.199 -3.131,-0.597 -0.98,-0.398 -1.807,-0.96 -2.483,-1.686 -0.503,-0.553 -0.892,-1.111 -1.169,-1.674 -0.277,-0.561 -0.503,-1.305 -0.676,-2.23 -0.173,-0.926 -0.291,-1.968 -0.351,-3.127 -0.061,-1.159 -0.091,-2.75 -0.091,-4.773 0,-2.006 0.03,-3.585 0.091,-4.735 0.06,-1.15 0.178,-2.192 0.351,-3.127 0.173,-0.933 0.399,-1.673 0.676,-2.218 0.277,-0.544 0.666,-1.119 1.169,-1.724 0.676,-0.71 1.503,-1.268 2.483,-1.674 0.978,-0.406 2.022,-0.609 3.131,-0.609 1.369,0 2.574,0.267 3.614,0.803 1.039,0.537 1.905,1.298 2.598,2.284 0.693,0.986 1.187,2.119 1.482,3.399 z"
             style="fill:#f48222;fill-opacity:1;fill-rule:nonzero;stroke:none"
             id="path38" />
        </g>
        <g
           id="g40"
           transform="translate(500.5244,193.0303)">
          <path
             d="m 0,0 c 0,3.771 -0.143,6.426 -0.429,7.965 -0.286,1.539 -0.887,2.802 -1.806,3.788 -0.659,0.709 -1.494,1.275 -2.508,1.699 -1.014,0.423 -2.058,0.636 -3.132,0.636 -1.092,0 -2.145,-0.213 -3.158,-0.636 -1.014,-0.424 -1.85,-0.99 -2.508,-1.699 -0.919,-1.021 -1.521,-2.292 -1.807,-3.815 -0.285,-1.521 -0.428,-4.167 -0.428,-7.938 0,-2.006 0.03,-3.61 0.09,-4.812 0.061,-1.203 0.178,-2.253 0.352,-3.153 0.173,-0.899 0.381,-1.599 0.623,-2.101 0.243,-0.501 0.633,-1.064 1.17,-1.686 0.692,-0.727 1.537,-1.298 2.534,-1.713 0.996,-0.415 2.04,-0.622 3.132,-0.622 2.287,0 4.167,0.778 5.64,2.335 0.624,0.674 1.095,1.444 1.417,2.309 0.32,0.865 0.537,2.041 0.649,3.528 C -0.056,-4.428 0,-2.456 0,0 m 5.744,0.012 c 0,-2.996 -0.057,-5.286 -0.169,-6.871 -0.112,-1.585 -0.429,-3.075 -0.948,-4.468 -0.52,-1.394 -1.352,-2.689 -2.495,-3.883 -2.721,-2.699 -6.056,-4.049 -10.007,-4.049 -3.95,0 -7.269,1.342 -9.954,4.029 -1.179,1.212 -2.027,2.503 -2.548,3.873 -0.519,1.368 -0.841,2.854 -0.961,4.457 -0.122,1.602 -0.183,3.902 -0.183,6.9 0,2.305 0.031,4.133 0.091,5.484 0.061,1.352 0.2,2.59 0.416,3.717 0.217,1.126 0.573,2.179 1.066,3.158 0.494,0.979 1.2,1.936 2.119,2.872 2.685,2.686 6.004,4.029 9.954,4.029 3.951,0 7.286,-1.343 10.007,-4.027 C 3.292,14.021 4.129,12.727 4.64,11.35 5.15,9.973 5.463,8.488 5.575,6.895 5.687,5.302 5.744,3.007 5.744,0.012"
             style="fill:#f48222;fill-opacity:1;fill-rule:nonzero;stroke:none"
             id="path42" />
        </g>
        <g
           id="g44"
           transform="translate(553.9521,174.083)">
          <path
             d="M 0,0 H -5.276 L -22.769,26.667 V 0 h -5.795 v 37.895 h 5.3 L -5.744,11.28 V 37.895 H 0 Z"
             style="fill:#f48222;fill-opacity:1;fill-rule:nonzero;stroke:none"
             id="path46" />
        </g>
        <g
           id="g48"
           transform="translate(598.2051,184.8955)">
          <path
             d="m 0,0 c 0,-1.681 -0.33,-3.219 -0.988,-4.613 -0.658,-1.396 -1.608,-2.582 -2.846,-3.562 -1.239,-0.978 -2.682,-1.715 -4.327,-2.209 -1.647,-0.494 -3.466,-0.74 -5.459,-0.74 -2.894,0 -5.41,0.387 -7.55,1.162 -2.141,0.774 -4.102,2.06 -5.887,3.853 l 3.847,3.796 c 0.849,-0.867 1.78,-1.578 2.794,-2.131 1.014,-0.555 2.092,-0.946 3.235,-1.17 1.144,-0.226 2.366,-0.338 3.665,-0.338 2.444,0 4.358,0.51 5.745,1.53 1.385,1.021 2.079,2.447 2.079,4.281 0,1.712 -0.503,3.018 -1.508,3.917 -0.45,0.451 -0.975,0.791 -1.572,1.025 -0.598,0.234 -1.452,0.428 -2.56,0.584 l -4.471,0.624 c -3.085,0.433 -5.484,1.446 -7.2,3.04 -1.836,1.715 -2.755,4.123 -2.755,7.224 0,2.2 0.511,4.14 1.534,5.821 1.022,1.679 2.486,2.983 4.392,3.91 1.906,0.927 4.15,1.391 6.732,1.391 2.547,0 4.747,-0.344 6.602,-1.033 1.853,-0.687 3.578,-1.781 5.172,-3.278 l -3.691,-3.643 c -0.762,0.745 -1.577,1.33 -2.443,1.754 -0.866,0.425 -1.768,0.728 -2.703,0.91 -0.936,0.182 -1.967,0.273 -3.093,0.273 -1.438,0 -2.677,-0.251 -3.717,-0.752 -1.04,-0.502 -1.832,-1.198 -2.378,-2.089 -0.545,-0.891 -0.819,-1.907 -0.819,-3.049 0,-1.504 0.477,-2.68 1.43,-3.528 0.468,-0.397 1.083,-0.756 1.845,-1.076 0.762,-0.321 1.569,-0.54 2.417,-0.661 l 4.315,-0.65 c 1.732,-0.259 3.149,-0.609 4.25,-1.05 1.1,-0.441 2.04,-1.025 2.819,-1.752 C -1.031,5.97 0,3.379 0,0"
             style="fill:#f48222;fill-opacity:1;fill-rule:nonzero;stroke:none"
             id="path50" />
        </g>
        <g
           id="g52"
           transform="translate(643.1582,186.8711)">
          <path
             d="m 0,0 c 0,-2.565 -0.589,-4.844 -1.767,-6.836 -1.178,-1.993 -2.803,-3.535 -4.874,-4.627 -2.07,-1.091 -4.396,-1.637 -6.978,-1.637 -2.565,0 -4.878,0.546 -6.94,1.637 -2.062,1.092 -3.681,2.634 -4.86,4.627 -1.179,1.992 -1.768,4.271 -1.768,6.836 v 25.106 h 5.745 V 0.279 c 0,-1.662 0.32,-3.113 0.962,-4.35 0.64,-1.239 1.55,-2.191 2.728,-2.857 1.179,-0.667 2.556,-1 4.133,-1 1.577,0 2.959,0.333 4.145,1 1.187,0.666 2.106,1.615 2.756,2.844 0.65,1.229 0.975,2.684 0.975,4.363 V 25.106 H 0 Z"
             style="fill:#f48222;fill-opacity:1;fill-rule:nonzero;stroke:none"
             id="path54" />
        </g>
        <g
           id="g56"
           transform="translate(687.125,174.083)">
          <path
             d="m 0,0 h -24.042 v 37.895 h 5.796 V 5.172 H 0 Z"
             style="fill:#f48222;fill-opacity:1;fill-rule:nonzero;stroke:none"
             id="path58" />
        </g>
        <g
           id="g60"
           transform="translate(727.583,206.8057)">
          <path
             d="m 0,0 h -10.422 v -32.723 h -5.744 V 0 H -26.614 V 5.172 H 0 Z"
             style="fill:#f48222;fill-opacity:1;fill-rule:nonzero;stroke:none"
             id="path62" />
        </g>
        <g
           id="g64"
           transform="translate(764.9219,193.0303)">
          <path
             d="m 0,0 c 0,3.771 -0.143,6.426 -0.429,7.965 -0.286,1.539 -0.887,2.802 -1.806,3.788 -0.659,0.709 -1.494,1.275 -2.508,1.699 -1.014,0.423 -2.058,0.636 -3.132,0.636 -1.092,0 -2.145,-0.213 -3.158,-0.636 -1.014,-0.424 -1.85,-0.99 -2.508,-1.699 -0.919,-1.021 -1.521,-2.292 -1.807,-3.815 -0.285,-1.521 -0.428,-4.167 -0.428,-7.938 0,-2.006 0.03,-3.61 0.09,-4.812 0.061,-1.203 0.178,-2.253 0.352,-3.153 0.173,-0.899 0.381,-1.599 0.623,-2.101 0.243,-0.501 0.633,-1.064 1.17,-1.686 0.692,-0.727 1.537,-1.298 2.534,-1.713 0.996,-0.415 2.04,-0.622 3.132,-0.622 2.287,0 4.167,0.778 5.64,2.335 0.624,0.674 1.095,1.444 1.417,2.309 0.32,0.865 0.537,2.041 0.649,3.528 C -0.056,-4.428 0,-2.456 0,0 m 5.744,0.012 c 0,-2.996 -0.057,-5.286 -0.169,-6.871 -0.112,-1.585 -0.429,-3.075 -0.948,-4.468 -0.52,-1.394 -1.352,-2.689 -2.495,-3.883 -2.721,-2.699 -6.056,-4.049 -10.007,-4.049 -3.95,0 -7.269,1.342 -9.954,4.029 -1.179,1.212 -2.027,2.503 -2.548,3.873 -0.519,1.368 -0.841,2.854 -0.961,4.457 -0.122,1.602 -0.183,3.902 -0.183,6.9 0,2.305 0.031,4.133 0.091,5.484 0.061,1.352 0.2,2.59 0.416,3.717 0.217,1.126 0.573,2.179 1.066,3.158 0.494,0.979 1.2,1.936 2.119,2.872 2.685,2.686 6.004,4.029 9.954,4.029 3.951,0 7.286,-1.343 10.007,-4.027 C 3.292,14.021 4.129,12.727 4.64,11.35 5.15,9.973 5.463,8.488 5.575,6.895 5.687,5.302 5.744,3.007 5.744,0.012"
             style="fill:#f48222;fill-opacity:1;fill-rule:nonzero;stroke:none"
             id="path66" />
        </g>
        <g
           id="g68"
           transform="translate(810.5264,200.8408)">
          <path
             d="m 0,0 c 0,1.85 -0.585,3.307 -1.755,4.37 -1.169,1.063 -2.733,1.595 -4.691,1.595 h -8.499 V -5.887 h 8.499 c 1.94,0 3.5,0.528 4.678,1.582 C -0.59,-3.251 0,-1.815 0,0 M 6.913,-26.758 H 0.208 l -7.979,15.933 h -7.174 v -15.933 h -5.796 v 37.895 h 14.725 c 2.325,0 4.384,-0.473 6.179,-1.418 C 1.958,8.773 3.337,7.464 4.3,5.79 5.263,4.116 5.744,2.204 5.744,0.054 c 0,-2.602 -0.698,-4.775 -2.093,-6.518 -1.394,-1.743 -3.21,-2.928 -5.445,-3.552 z"
             style="fill:#f48222;fill-opacity:1;fill-rule:nonzero;stroke:none"
             id="path70" />
        </g>
        <path
           d="m 841.081,174.083 h -5.796 v 37.895 h 5.796 z"
           style="fill:#f48222;fill-opacity:1;fill-rule:nonzero;stroke:none"
           id="path72" />
        <g
           id="g74"
           transform="translate(879.1816,186.585)">
          <path
             d="M 0,0 -5.739,16.816 -11.635,0 Z M 10.336,-12.502 H 4.207 L 1.61,-4.887 h -14.959 l -2.596,-7.615 h -6.13 l 13.894,37.895 h 4.622 z"
             style="fill:#f48222;fill-opacity:1;fill-rule:nonzero;stroke:none"
             id="path76" />
        </g>
        <g
           id="g78"
           transform="translate(69.6338,266.1812)">
          <path
             d="m 0,0 11.613,6.969 c 8.176,-15.052 17.621,-22.577 28.338,-22.577 4.583,0 8.887,1.068 12.914,3.205 4.026,2.136 7.092,5.001 9.198,8.593 2.105,3.592 3.159,7.402 3.159,11.429 0,4.583 -1.549,9.072 -4.646,13.472 C 56.303,27.16 48.498,34.47 37.163,43.017 25.767,51.625 18.675,57.851 15.888,61.692 11.056,68.133 8.641,75.101 8.641,82.597 c 0,5.945 1.423,11.365 4.273,16.258 2.849,4.893 6.859,8.749 12.032,11.568 5.171,2.818 10.792,4.227 16.863,4.227 6.441,0 12.464,-1.595 18.071,-4.785 5.604,-3.191 11.535,-9.058 17.792,-17.606 L 66.522,83.804 C 61.381,90.617 57,95.107 53.376,97.276 c -3.623,2.167 -7.572,3.252 -11.846,3.252 -5.513,0 -10.019,-1.673 -13.518,-5.017 -3.5,-3.345 -5.249,-7.465 -5.249,-12.357 0,-2.973 0.618,-5.853 1.858,-8.641 1.238,-2.787 3.498,-5.823 6.782,-9.105 1.796,-1.735 7.68,-6.287 17.653,-13.658 11.83,-8.733 19.943,-16.507 24.342,-23.319 4.397,-6.815 6.597,-13.659 6.597,-20.534 0,-9.911 -3.764,-18.52 -11.289,-25.828 -7.525,-7.31 -16.677,-10.963 -27.454,-10.963 -8.302,0 -15.827,2.215 -22.577,6.643 C 11.923,-17.824 5.697,-10.405 0,0"
             style="fill:#000000;fill-opacity:1;fill-rule:nonzero;stroke:none"
             id="path80" />
        </g>
        <path
           d="m 174.436,341.81 h 13.007 V 240.725 h -13.007 z m 6.457,41.623 c 2.96,0 5.489,-1.054 7.585,-3.159 2.096,-2.107 3.146,-4.646 3.146,-7.619 0,-2.912 -1.05,-5.421 -3.146,-7.526 -2.096,-2.106 -4.625,-3.158 -7.585,-3.158 -2.9,0 -5.398,1.052 -7.495,3.158 -2.095,2.105 -3.143,4.614 -3.143,7.526 0,2.973 1.048,5.512 3.143,7.619 2.097,2.105 4.595,3.159 7.495,3.159"
           style="fill:#000000;fill-opacity:1;fill-rule:nonzero;stroke:none"
           id="path82" />
        <g
           id="g84"
           transform="translate(214.3867,341.8096)">
          <path
             d="m 0,0 h 13.007 v -17.467 c 4.526,6.441 9.177,11.149 13.952,14.122 6.573,3.963 13.488,5.946 20.744,5.946 4.898,0 9.548,-0.961 13.95,-2.88 4.404,-1.921 8.001,-4.475 10.791,-7.665 2.79,-3.191 5.209,-7.758 7.256,-13.704 4.324,7.928 9.731,13.951 16.22,18.071 6.489,4.119 13.472,6.178 20.948,6.178 6.983,0 13.147,-1.765 18.491,-5.295 5.346,-3.531 9.315,-8.455 11.911,-14.773 2.595,-6.318 3.893,-15.794 3.893,-28.43 v -55.188 h -13.286 v 55.188 c 0,10.838 -0.773,18.287 -2.315,22.344 -1.543,4.056 -4.183,7.324 -7.918,9.802 -3.736,2.477 -8.195,3.717 -13.38,3.717 -6.298,0 -12.054,-1.859 -17.272,-5.575 -5.217,-3.716 -9.029,-8.672 -11.436,-14.866 -2.407,-6.193 -3.611,-16.537 -3.611,-31.031 v -39.579 H 68.938 v 51.75 c 0,12.202 -0.759,20.486 -2.276,24.853 -1.518,4.367 -4.167,7.866 -7.944,10.499 -3.779,2.632 -8.269,3.949 -13.472,3.949 -6.009,0 -11.629,-1.812 -16.862,-5.436 -5.236,-3.623 -9.106,-8.501 -11.614,-14.633 -2.509,-6.132 -3.763,-15.516 -3.763,-28.151 v -42.831 H 0 Z"
             style="fill:#000000;fill-opacity:1;fill-rule:nonzero;stroke:none"
             id="path86" />
        </g>
        <g
           id="g88"
           transform="translate(445.1729,331.8682)">
          <path
             d="m 0,0 c -11.248,0 -20.718,-3.93 -28.411,-11.787 -7.694,-7.858 -11.54,-17.633 -11.54,-29.326 0,-7.672 1.715,-14.57 5.144,-20.695 3.43,-6.125 8.342,-10.981 14.739,-14.569 6.396,-3.589 13.146,-5.383 20.254,-5.383 6.982,0 13.547,1.808 19.697,5.429 6.149,3.62 11.046,8.677 14.692,15.173 3.646,6.495 5.469,13.301 5.469,20.417 0,7.176 -1.809,13.982 -5.424,20.416 -3.614,6.433 -8.48,11.43 -14.599,14.989 C 13.904,-1.78 7.229,0 0,0 m -52.029,9.941 h 13.007 V -8.641 c 5.136,7.061 11.044,12.357 17.728,15.888 6.683,3.53 14.139,5.295 22.368,5.295 14.355,0 26.638,-5.172 36.847,-15.515 10.21,-10.345 15.316,-22.795 15.316,-37.35 0,-14.865 -5.059,-27.486 -15.176,-37.86 -10.118,-10.375 -22.322,-15.562 -36.616,-15.562 -8.045,0 -15.438,1.673 -22.182,5.017 -6.745,3.345 -12.841,8.329 -18.285,14.958 v -54.351 h -13.007 z"
             style="fill:#000000;fill-opacity:1;fill-rule:nonzero;stroke:none"
             id="path90" />
        </g>
        <path
           d="m 520.801,380.832 h 13.007 V 240.725 h -13.007 z"
           style="fill:#000000;fill-opacity:1;fill-rule:nonzero;stroke:none"
           id="path92" />
        <g
           id="g94"
           transform="translate(645.9492,301.4868)">
          <path
             d="m 0,0 c -1.736,6.937 -4.264,12.48 -7.582,16.631 -3.318,4.149 -7.706,7.494 -13.163,10.034 -5.458,2.539 -11.193,3.809 -17.208,3.809 -9.924,0 -18.451,-3.191 -25.582,-9.569 C -68.745,16.259 -72.684,9.291 -75.35,0 Z m 0,-27.223 10.964,-5.759 c -3.597,-7.062 -7.75,-12.761 -12.462,-17.096 -4.712,-4.336 -10.013,-7.634 -15.902,-9.894 -5.891,-2.261 -12.556,-3.392 -19.995,-3.392 -16.491,0 -29.385,5.404 -38.684,16.213 -9.3,10.807 -13.95,23.025 -13.95,36.652 0,12.821 3.935,24.249 11.809,34.284 9.981,12.759 23.341,19.139 40.081,19.139 17.235,0 30.996,-6.535 41.287,-19.604 7.316,-9.23 11.036,-20.751 11.161,-34.562 H -76.65 c 0.247,-11.741 4,-21.366 11.255,-28.874 7.255,-7.509 16.217,-11.263 26.884,-11.263 5.147,0 10.154,0.895 15.023,2.685 4.867,1.788 9.006,4.165 12.418,7.126 3.411,2.962 7.101,7.743 11.07,14.345"
             style="fill:#000000;fill-opacity:1;fill-rule:nonzero;stroke:none"
             id="path96" />
        </g>
        <g
           id="g98"
           transform="translate(735.3291,330.7534)">
          <path
             d="m 0,0 -8.362,-8.641 c -6.956,6.751 -13.756,10.127 -20.4,10.127 -4.224,0 -7.842,-1.393 -10.852,-4.181 -3.013,-2.787 -4.518,-6.039 -4.518,-9.755 0,-3.284 1.241,-6.411 3.724,-9.384 2.482,-3.035 7.696,-6.597 15.641,-10.685 9.684,-5.016 16.263,-9.848 19.74,-14.494 3.413,-4.707 5.12,-10.003 5.12,-15.886 0,-8.301 -2.917,-15.33 -8.748,-21.091 -5.831,-5.76 -13.12,-8.64 -21.866,-8.64 -5.833,0 -11.4,1.27 -16.704,3.809 -5.303,2.539 -9.692,6.039 -13.167,10.499 l 8.177,9.29 c 6.643,-7.495 13.69,-11.241 21.14,-11.241 5.214,0 9.652,1.671 13.316,5.016 3.662,3.345 5.494,7.278 5.494,11.8 0,3.716 -1.21,7.029 -3.63,9.941 -2.421,2.848 -7.884,6.441 -16.387,10.778 -9.125,4.706 -15.333,9.351 -18.622,13.936 -3.29,4.583 -4.935,9.816 -4.935,15.701 0,7.68 2.62,14.06 7.864,19.14 5.243,5.078 11.865,7.618 19.87,7.618 C -18.8,13.657 -9.431,9.105 0,0"
             style="fill:#000000;fill-opacity:1;fill-rule:nonzero;stroke:none"
             id="path100" />
        </g>
        <g
           id="g102"
           transform="translate(780.3764,237.1466)">
          <path
             d="m 0,0 c -5.131,1.135 -7.925,2.748 -9.644,5.566 -1.137,1.866 -1.172,6.208 -0.172,21.377 1.316,19.967 2.962,26.244 6.883,26.244 1.943,0 2.849,-0.616 4.708,-3.204 2.012,-2.8 4.598,-4.138 8.824,-4.565 6.117,-0.618 11.986,1.132 15.818,4.716 8.147,7.621 6.974,25.893 -2.06,32.109 C 19.172,85.81 11.587,86.454 5.998,83.802 5.034,83.344 3.656,81.953 2.539,80.308 1.518,78.805 0.28,77.359 -0.213,77.095 c -1.311,-0.702 -4.347,-0.586 -5.481,0.208 -3.219,2.255 -6.089,16.599 -4.202,20.998 1.554,3.62 7.057,6.804 13.879,8.03 2.19,0.394 9.027,1.151 15.194,1.682 16.901,1.455 18.541,2.006 18.541,6.225 0,1.186 -0.531,1.968 -2.759,4.062 -4.15,3.901 -4.508,4.818 -4.48,11.496 0.02,4.717 0.196,6.059 1.094,8.332 1.478,3.741 3.618,6.387 6.627,8.193 3.36,2.017 5.003,2.469 10.108,2.78 7.49,0.457 13.86,-1.408 17.381,-5.089 3.234,-3.38 5.107,-9.721 4.696,-15.895 -0.309,-4.63 -1.438,-6.806 -4.893,-9.427 -3.235,-2.455 -4.117,-4.611 -2.744,-6.706 1.39,-2.122 3.433,-2.57 18.272,-4.002 14.3,-1.381 19.6,-2.342 23.312,-4.227 6.286,-3.191 7.353,-6.012 5.766,-15.248 -1.021,-5.943 -1.93,-8.811 -3.314,-10.455 -1.006,-1.197 -1.548,-1.437 -3.24,-1.437 -2.327,0 -3.935,1.115 -6.086,4.218 -2.614,3.772 -7.243,5.269 -13.236,4.282 C 77.476,84.003 72.168,79.994 70.021,74.388 67.983,69.067 68.27,59.503 70.606,54.898 74.364,47.489 84.513,43.453 93.04,45.974 c 2.067,0.612 3.143,1.359 5.73,3.983 2.66,2.698 3.44,3.23 4.73,3.23 4.004,0 5.18,-4.91 6.617,-27.627 0.929,-14.677 0.907,-18.152 -0.124,-20.045 -1.159,-2.126 -3.576,-3.746 -7.38,-4.944 -3.101,-0.977 -4.094,-1.032 -18.273,-1.018 -15.812,0.017 -17.4,0.19 -20.429,2.225 -1.393,0.936 -1.612,1.355 -1.738,3.336 -0.138,2.153 -0.048,2.35 1.837,3.967 5.369,4.61 6.042,5.958 6.033,12.065 -0.019,12.896 -7.785,19.562 -21.906,18.8 -7.287,-0.392 -12.003,-2.863 -14.995,-7.854 -2.02,-3.368 -2.498,-5.058 -2.784,-9.829 -0.361,-6.054 0.181,-7.439 4.588,-11.723 3.435,-3.341 3.71,-3.748 3.71,-5.514 0,-2.88 -1.845,-4.299 -6.773,-5.21 C 27.843,-0.931 3.574,-0.791 0,0"
             style="fill:#000000;fill-opacity:1;fill-rule:nonzero;stroke:none"
             id="path104" />
        </g>
        <g
           id="g106"
           transform="translate(845.2064,327.4981)">
          <path
             d="M 0,0 -0.735,0.735 4.919,6.389 H 45.766 L 45.961,5.35 H 5.35 Z"
             style="fill:#f48222;fill-opacity:1;fill-rule:nonzero;stroke:none"
             id="path108" />
        </g>
        <g
           id="g110"
           transform="translate(891.0714,330.2376)">
          <path
             d="M 0,0 H -36.995 V 1.039 H 0.096 Z"
             style="fill:#f48222;fill-opacity:1;fill-rule:nonzero;stroke:none"
             id="path112" />
        </g>
        <g
           id="g114"
           transform="translate(890.8012,327.7475)">
          <path
             d="M 0,0 -6.016,-0.119 V 0.92 h 6.135 z"
             style="fill:#f48222;fill-opacity:1;fill-rule:nonzero;stroke:none"
             id="path116" />
        </g>
        <g
           id="g118"
           transform="translate(793.906,260.9028)">
          <path
             d="m 0,0 h -23.55 l 0.065,1.039 H -0.43 L 3.503,4.973 4.238,4.238 Z"
             style="fill:#f48222;fill-opacity:1;fill-rule:nonzero;stroke:none"
             id="path120" />
        </g>
        <path
           d="m 780.487,251.703 h -10.644 v 1.039 h 10.644 z"
           style="fill:#f48222;fill-opacity:1;fill-rule:nonzero;stroke:none"
           id="path122" />
        <path
           d="m 787.52,256.303 h -17.447 v 1.039 h 17.447 z"
           style="fill:#f48222;fill-opacity:1;fill-rule:nonzero;stroke:none"
           id="path124" />
        <g
           id="g126"
           transform="translate(788.0673,256.657)">
          <path
             d="m 0,0 c 0,-0.589 -0.478,-1.067 -1.067,-1.067 -0.59,0 -1.068,0.478 -1.068,1.067 0,0.589 0.478,1.067 1.068,1.067 C -0.478,1.067 0,0.589 0,0"
             style="fill:#f48222;fill-opacity:1;fill-rule:nonzero;stroke:none"
             id="path128" />
        </g>
        <g
           id="g130"
           transform="translate(787,257.3418)">
          <path
             d="m 0,0 c -0.378,0 -0.685,-0.307 -0.685,-0.685 0,-0.377 0.307,-0.684 0.685,-0.684 0.377,0 0.685,0.307 0.685,0.684 C 0.685,-0.307 0.377,0 0,0 m 0,-2.134 c -0.8,0 -1.45,0.65 -1.45,1.449 0,0.8 0.65,1.45 1.45,1.45 0.799,0 1.45,-0.65 1.45,-1.45 0,-0.799 -0.651,-1.449 -1.45,-1.449"
             style="fill:#f48222;fill-opacity:1;fill-rule:nonzero;stroke:none"
             id="path132" />
        </g>
        <g
           id="g134"
           transform="translate(886.1768,327.7689)">
          <path
             d="m 0,0 c 0,-0.559 -0.453,-1.013 -1.013,-1.013 -0.559,0 -1.012,0.454 -1.012,1.013 0,0.559 0.453,1.013 1.012,1.013 C -0.453,1.013 0,0.559 0,0"
             style="fill:#f48222;fill-opacity:1;fill-rule:nonzero;stroke:none"
             id="path136" />
        </g>
        <g
           id="g138"
           transform="translate(885.1641,328.4186)">
          <path
             d="m 0,0 c -0.358,0 -0.65,-0.291 -0.65,-0.65 0,-0.358 0.292,-0.65 0.65,-0.65 0.358,0 0.65,0.292 0.65,0.65 C 0.65,-0.291 0.358,0 0,0 m 0,-2.026 c -0.759,0 -1.376,0.617 -1.376,1.376 0,0.759 0.617,1.376 1.376,1.376 0.759,0 1.376,-0.617 1.376,-1.376 0,-0.759 -0.617,-1.376 -1.376,-1.376"
             style="fill:#f48222;fill-opacity:1;fill-rule:nonzero;stroke:none"
             id="path140" />
        </g>
        <g
           id="g142"
           transform="translate(846.426,328.3848)">
          <path
             d="m 0,0 c 0,-0.59 -0.478,-1.067 -1.067,-1.067 -0.59,0 -1.068,0.477 -1.068,1.067 0,0.589 0.478,1.067 1.068,1.067 C -0.478,1.067 0,0.589 0,0"
             style="fill:#f48222;fill-opacity:1;fill-rule:nonzero;stroke:none"
             id="path144" />
        </g>
        <g
           id="g146"
           transform="translate(845.3586,329.0697)">
          <path
             d="m 0,0 c -0.378,0 -0.685,-0.307 -0.685,-0.685 0,-0.377 0.307,-0.685 0.685,-0.685 0.378,0 0.685,0.308 0.685,0.685 C 0.685,-0.307 0.378,0 0,0 m 0,-2.135 c -0.8,0 -1.45,0.651 -1.45,1.45 0,0.8 0.65,1.45 1.45,1.45 0.8,0 1.45,-0.65 1.45,-1.45 0,-0.799 -0.65,-1.45 -1.45,-1.45"
             style="fill:#f48222;fill-opacity:1;fill-rule:nonzero;stroke:none"
             id="path148" />
        </g>
        <g
           id="g150"
           transform="translate(780.5059,271.4349)">
          <path
             d="M 0,0 H 1.039 V 7.51 L -6.805,15.399 -7.199,14.257 0,7.08 Z"
             style="fill:#f48222;fill-opacity:1;fill-rule:nonzero;stroke:none"
             id="path152" />
        </g>
        <g
           id="g154"
           transform="translate(780.0956,271.9545)">
          <path
             d="m 0,0 c 0,-0.589 0.478,-1.067 1.067,-1.067 0.59,0 1.068,0.478 1.068,1.067 0,0.589 -0.478,1.067 -1.068,1.067 C 0.478,1.067 0,0.589 0,0"
             style="fill:#f48222;fill-opacity:1;fill-rule:nonzero;stroke:none"
             id="path156" />
        </g>
        <g
           id="g158"
           transform="translate(780.4782,271.9545)">
          <path
             d="M 0,0 C 0,-0.378 0.307,-0.685 0.685,-0.685 1.062,-0.685 1.37,-0.378 1.37,0 1.37,0.378 1.062,0.685 0.685,0.685 0.307,0.685 0,0.378 0,0 m -0.765,0 c 0,0.799 0.65,1.45 1.45,1.45 0.799,0 1.45,-0.651 1.45,-1.45 0,-0.8 -0.651,-1.45 -1.45,-1.45 -0.8,0 -1.45,0.65 -1.45,1.45"
             style="fill:#f48222;fill-opacity:1;fill-rule:nonzero;stroke:none"
             id="path160" />
        </g>
        <path
           d="m 830.999,350.419 h -1.231 v 31.727 h 1.231 z"
           style="fill:#f48222;fill-opacity:1;fill-rule:nonzero;stroke:none"
           id="path162" />
        <g
           id="g164"
           transform="translate(830.3834,381.5302)">
          <path
             d="m 0,0 c -8.408,0 -15.247,-6.84 -15.247,-15.248 0,-8.407 6.839,-15.247 15.247,-15.247 8.408,0 15.248,6.84 15.248,15.247 C 15.248,-6.84 8.408,0 0,0 m 0,-31.727 c -9.086,0 -16.479,7.393 -16.479,16.479 0,9.087 7.393,16.479 16.479,16.479 9.087,0 16.479,-7.392 16.479,-16.479 0,-9.086 -7.392,-16.479 -16.479,-16.479"
             style="fill:#f48222;fill-opacity:1;fill-rule:nonzero;stroke:none"
             id="path166" />
        </g>
        <g
           id="g168"
           transform="translate(842.3013,356.0169)">
          <path
             d="m 0,0 c -2.908,3.654 -7.252,5.749 -11.918,5.749 -4.665,0 -9.009,-2.095 -11.918,-5.749 l -0.963,0.767 c 3.143,3.949 7.838,6.213 12.881,6.213 5.043,0 9.738,-2.264 12.881,-6.213 z"
             style="fill:#f48222;fill-opacity:1;fill-rule:nonzero;stroke:none"
             id="path170" />
        </g>
        <g
           id="g172"
           transform="translate(830.3834,369.5677)">
          <path
             d="m 0,0 c -5.043,0 -9.738,2.265 -12.881,6.213 l 0.963,0.767 C -9.009,3.327 -4.665,1.231 0,1.231 c 4.666,0 9.01,2.096 11.918,5.749 L 12.881,6.213 C 9.738,2.265 5.043,0 0,0"
             style="fill:#f48222;fill-opacity:1;fill-rule:nonzero;stroke:none"
             id="path174" />
        </g>
        <g
           id="g176"
           transform="translate(829.9742,349.8907)">
          <path
             d="m 0,0 c -5.742,3.429 -9.308,9.71 -9.308,16.392 0,6.681 3.566,12.961 9.308,16.392 L 0.631,31.727 C -4.74,28.518 -8.077,22.642 -8.077,16.392 -8.077,10.141 -4.74,4.265 0.631,1.057 Z"
             style="fill:#f48222;fill-opacity:1;fill-rule:nonzero;stroke:none"
             id="path178" />
        </g>
        <g
           id="g180"
           transform="translate(830.7928,349.8907)">
          <path
             d="m 0,0 -0.631,1.057 c 5.371,3.208 8.708,9.084 8.708,15.335 0,6.25 -3.337,12.126 -8.708,15.335 L 0,32.784 C 5.742,29.353 9.308,23.073 9.308,16.392 9.308,9.71 5.742,3.429 0,0"
             style="fill:#f48222;fill-opacity:1;fill-rule:nonzero;stroke:none"
             id="path182" />
        </g>
        <path
           d="m 846.247,365.667 h -31.726 v 1.231 h 31.726 z"
           style="fill:#f48222;fill-opacity:1;fill-rule:nonzero;stroke:none"
           id="path184" />
        <g
           id="g186"
           transform="translate(865.8289,262.5023)">
          <path
             d="M 0,0 H 24.665 L 24.612,1.029 0.43,1.039 -3.503,4.973 -4.238,4.238 Z"
             style="fill:#f48222;fill-opacity:1;fill-rule:nonzero;stroke:none"
             id="path188" />
        </g>
        <g
           id="g190"
           transform="translate(879.248,253.302)">
          <path
             d="M 0,0 H 11.779 L 11.73,1.039 H 0 Z"
             style="fill:#f48222;fill-opacity:1;fill-rule:nonzero;stroke:none"
             id="path192" />
        </g>
        <g
           id="g194"
           transform="translate(872.2153,257.9021)">
          <path
             d="M 0,0 H 18.571 L 18.51,1.039 H 0 Z"
             style="fill:#f48222;fill-opacity:1;fill-rule:nonzero;stroke:none"
             id="path196" />
        </g>
        <g
           id="g198"
           transform="translate(871.6676,258.5868)">
          <path
             d="m 0,0 c 0,-0.589 0.478,-1.067 1.067,-1.067 0.59,0 1.068,0.478 1.068,1.067 0,0.589 -0.478,1.067 -1.068,1.067 C 0.478,1.067 0,0.589 0,0"
             style="fill:#f48222;fill-opacity:1;fill-rule:nonzero;stroke:none"
             id="path200" />
        </g>
        <g
           id="g202"
           transform="translate(872.0502,258.5868)">
          <path
             d="M 0,0 C 0,-0.378 0.307,-0.685 0.685,-0.685 1.062,-0.685 1.37,-0.378 1.37,0 1.37,0.378 1.062,0.685 0.685,0.685 0.307,0.685 0,0.378 0,0 m -0.765,0 c 0,0.799 0.65,1.45 1.45,1.45 0.799,0 1.45,-0.651 1.45,-1.45 0,-0.799 -0.651,-1.45 -1.45,-1.45 -0.8,0 -1.45,0.651 -1.45,1.45"
             style="fill:#f48222;fill-opacity:1;fill-rule:nonzero;stroke:none"
             id="path204" />
        </g>
        <g
           id="g206"
           transform="translate(834.4196,329.1776)">
          <path
             d="m 0,0 c -0.794,0.322 -1.635,0.485 -2.5,0.485 l -0.055,2.02 0.082,-10e-4 h 0.002 c 1.099,0 2.194,-0.213 3.229,-0.633 z m -7.233,-1.493 -1.436,1.42 c 0.806,0.815 1.747,1.453 2.797,1.897 l 0.785,-1.861 c -0.805,-0.34 -1.527,-0.829 -2.146,-1.456 m 10.86,-2.074 c -0.342,0.805 -0.833,1.525 -1.46,2.142 l 1.416,1.44 C 4.399,-0.789 5.04,-1.728 5.486,-2.778 Z m -14.8,-2.639 v 0.037 c 0,1.133 0.215,2.235 0.64,3.276 l 1.87,-0.763 C -8.989,-4.454 -9.154,-5.299 -9.154,-6.169 Z M 5.518,-9.485 3.653,-8.713 c 0.333,0.806 0.502,1.662 0.502,2.544 l 1.423,0.051 0.596,-0.031 c 0,-1.168 -0.221,-2.284 -0.656,-3.336 m -14.129,-2.84 c -0.813,0.808 -1.449,1.75 -1.89,2.801 l 1.862,0.781 c 0.338,-0.806 0.827,-1.529 1.451,-2.149 z m 9.446,-1.854 -0.776,1.864 c 0.807,0.336 1.531,0.823 2.153,1.445 l 1.429,-1.425 c -0.809,-0.812 -1.753,-1.446 -2.806,-1.884 m -3.321,-0.664 c -1.156,0 -2.264,0.218 -3.31,0.648 l 0.768,1.868 c 0.802,-0.33 1.653,-0.497 2.528,-0.497 l 0.018,-2.019 z"
             style="fill:#f48222;fill-opacity:1;fill-rule:nonzero;stroke:none"
             id="path208" />
        </g>
      </g>
    </g>
  </g>
</svg>
